<svg width="22" height="19" viewBox="0 0 22 19" fill="none" xmlns="http://www.w3.org/2000/svg">
<g id="Icon">
<path id="Vector" d="M19 1.50781H3.01562C2.45312 1.50781 1.97656 1.70312 1.58594 2.09375C1.19531 2.48438 1 2.95312 1 3.5V15.5C1 16.0469 1.19531 16.5156 1.58594 16.9062C1.97656 17.2969 2.45312 17.4922 3.01562 17.4922H19C19.5625 17.4922 20.0391 17.2969 20.4297 16.9062C20.8203 16.5156 21.0156 16.0469 21.0156 15.5V3.5C21.0156 2.95312 20.8203 2.48438 20.4297 2.09375C20.0391 1.70312 19.5625 1.50781 19 1.50781ZM19 15.5H3.01562V5.49219L11.0078 10.5078L19 5.49219V15.5ZM19 3.5L11.0078 8.49219L3.01562 3.5H19Z" fill="white"/>
</g>
</svg>
