<svg width="21" height="21" viewBox="0 0 21 21" fill="none" xmlns="http://www.w3.org/2000/svg">
<g id="Icon">
<path id="Vector" d="M9.99219 3.89844C10.5703 3.89844 11.0664 4.10547 11.4805 4.51953C11.8945 4.93359 12.1016 5.42969 12.1016 6.00781C12.1016 6.58594 11.8945 7.07812 11.4805 7.48438C11.0664 7.89062 10.5703 8.09375 9.99219 8.09375C9.41406 8.09375 8.91797 7.89062 8.50391 7.48438C8.08984 7.07812 7.88281 6.58594 7.88281 6.00781C7.88281 5.42969 8.08984 4.93359 8.50391 4.51953C8.91797 4.10547 9.41406 3.89844 9.99219 3.89844ZM9.99219 12.8984C10.7422 12.8984 11.4766 12.9766 12.1953 13.1328C12.9297 13.2891 13.5859 13.4805 14.1641 13.707C14.7422 13.9336 15.2031 14.1641 15.5469 14.3984C15.9062 14.6328 16.0859 14.8359 16.0859 15.0078V16.1094H3.89844V15.0078C3.89844 14.8359 4.07812 14.6328 4.4375 14.3984C4.78125 14.1641 5.24219 13.9336 5.82031 13.707C6.39844 13.4805 7.05469 13.2891 7.78906 13.1328C8.50781 12.9766 9.24219 12.8984 9.99219 12.8984ZM9.99219 2C8.88281 2 7.9375 2.39062 7.15625 3.17188C6.375 3.95312 5.98438 4.89844 5.98438 6.00781C5.98438 7.10156 6.375 8.03906 7.15625 8.82031C7.9375 9.60156 8.88281 9.99219 9.99219 9.99219C11.1016 9.99219 12.0469 9.60156 12.8281 8.82031C13.6094 8.03906 14 7.10156 14 6.00781C14 4.89844 13.6094 3.95312 12.8281 3.17188C12.0469 2.39062 11.1016 2 9.99219 2ZM9.99219 11C9.32031 11 8.53125 11.0859 7.625 11.2578C6.70312 11.4141 5.82422 11.6602 4.98828 11.9961C4.15234 12.332 3.44531 12.75 2.86719 13.25C2.28906 13.75 2 14.3359 2 15.0078V18.0078H17.9844V15.0078C17.9844 14.3359 17.6953 13.75 17.1172 13.25C16.5391 12.75 15.832 12.332 14.9961 11.9961C14.1602 11.6602 13.2812 11.4141 12.3594 11.2578C11.4531 11.0859 10.6641 11 9.99219 11Z" fill="white"/>
</g>
</svg>
